<mxfile host="app.diagrams.net" modified="2020-10-30T13:12:54.904Z" agent="5.0 (Windows NT 10.0; Win64; x64) AppleWebKit/537.36 (KHTML, like Gecko) Chrome/86.0.4240.111 Safari/537.36" etag="CegucOksHKD3sxWNagRS" version="13.8.8" type="github">
  <diagram name="Page-1" id="e56a1550-8fbb-45ad-956c-1786394a9013">
    <mxGraphModel dx="868" dy="1319" grid="1" gridSize="10" guides="1" tooltips="1" connect="1" arrows="1" fold="1" page="1" pageScale="1" pageWidth="1169" pageHeight="827" background="#FFFFFF" math="0" shadow="0">
      <root>
        <mxCell id="0" />
        <mxCell id="1" parent="0" />
        <mxCell id="cO4MhVA1Q7RVWU0ZCWde-2" value="" style="verticalLabelPosition=bottom;verticalAlign=top;html=1;shadow=0;dashed=0;strokeWidth=1;shape=mxgraph.android.phone2;strokeColor=#6c8ebf;fillColor=#dae8fc;" vertex="1" parent="1">
          <mxGeometry x="360" y="-40" width="200" height="390" as="geometry" />
        </mxCell>
        <mxCell id="cO4MhVA1Q7RVWU0ZCWde-6" value="VOXIS" style="text;align=center;verticalAlign=middle;resizable=0;points=[];autosize=1;fontStyle=1;fontFamily=Courier New;fontSize=42;labelBackgroundColor=none;labelBorderColor=none;" vertex="1" parent="1">
          <mxGeometry x="390" y="384" width="140" height="60" as="geometry" />
        </mxCell>
        <mxCell id="cO4MhVA1Q7RVWU0ZCWde-10" value="" style="verticalLabelPosition=bottom;verticalAlign=top;html=1;shadow=0;dashed=0;strokeWidth=1;shape=mxgraph.android.phone2;strokeColor=#c0c0c0;labelBackgroundColor=none;fontFamily=Courier New;fontSize=42;" vertex="1" parent="1">
          <mxGeometry x="360" y="360" width="200" height="390" as="geometry" />
        </mxCell>
        <mxCell id="cO4MhVA1Q7RVWU0ZCWde-14" value="Tap Area" style="dashed=0;align=center;fontSize=12;shape=rect;fillColor=#2196F3;strokeColor=none;fontStyle=1;shadow=1;fontColor=#ffffff;labelBackgroundColor=none;html=0;" vertex="1" parent="1">
          <mxGeometry x="370" y="440" width="180" height="270" as="geometry" />
        </mxCell>
      </root>
    </mxGraphModel>
  </diagram>
</mxfile>
